<svg width="102" height="130" viewBox="0 0 102 130" fill="none" xmlns="http://www.w3.org/2000/svg">
<path d="M102 45.5109C102.003 37.6788 99.7397 29.9785 95.4286 23.1556C91.1174 16.3327 84.9046 10.6181 77.3916 6.56511C69.8787 2.51211 61.3199 0.257963 52.544 0.0208562C43.768 -0.216251 35.072 1.57172 27.2978 5.21169C19.5237 8.85166 12.9346 14.2203 8.16842 20.798C3.40227 27.3757 0.620492 34.9396 0.09236 42.7576C-0.435772 50.5755 1.30763 58.3827 5.15381 65.4233C8.99998 72.464 14.8187 78.4997 22.0466 82.9461L8.05314e-06 117.002L16.4366 117.606L25.2377 130L50.49 90.979L51 91.005C51.255 91.018 51.3351 90.9855 51.51 90.979L76.7623 130L85.7383 117.873L102 117.002L79.9534 82.9461C86.7554 78.7684 92.3165 73.1778 96.1572 66.6562C99.9979 60.1346 102.003 52.8777 102 45.5109ZM14.5714 45.5109C14.5714 39.0838 16.7079 32.8011 20.7108 27.4572C24.7136 22.1133 30.4029 17.9482 37.0594 15.4887C43.7158 13.0292 51.0404 12.3856 58.1069 13.6395C65.1733 14.8933 71.6643 17.9883 76.7589 22.5329C81.8535 27.0775 85.323 32.8677 86.7286 39.1713C88.1342 45.4748 87.4128 52.0087 84.6556 57.9465C81.8984 63.8843 77.2293 68.9595 71.2386 72.5302C65.248 76.1009 58.2049 78.0067 51 78.0067C41.3385 78.0067 32.0728 74.583 25.2411 68.4889C18.4094 62.3948 14.5714 54.1293 14.5714 45.5109Z" fill="white"/>
</svg>
