<svg width="25" height="25" viewBox="0 0 25 25" fill="none" xmlns="http://www.w3.org/2000/svg">
<path d="M15.9102 3.39844C16.4147 3.39828 16.9007 3.58884 17.2707 3.93193C17.6407 4.27503 17.8673 4.74528 17.9052 5.24844L17.9102 5.39844C17.9102 5.64337 18.0001 5.87977 18.1629 6.06281C18.3256 6.24584 18.5499 6.36278 18.7932 6.39144L18.9102 6.39844H19.9102C20.6754 6.39839 21.4117 6.69076 21.9684 7.21572C22.5252 7.74068 22.8603 8.45855 22.9052 9.22244L22.9102 9.39844V18.3984C22.9102 19.1636 22.6178 19.9 22.0929 20.4567C21.5679 21.0134 20.85 21.3485 20.0862 21.3934L19.9102 21.3984H5.91016C5.14495 21.3985 4.40864 21.1061 3.8519 20.5812C3.29515 20.0562 2.96005 19.3383 2.91516 18.5744L2.91016 18.3984V9.39844C2.91011 8.63323 3.20248 7.89692 3.72744 7.34018C4.2524 6.78343 4.97026 6.44833 5.73416 6.40344L5.91016 6.39844H6.91016C7.17537 6.39844 7.42973 6.29308 7.61726 6.10554C7.8048 5.91801 7.91016 5.66365 7.91016 5.39844C7.91 4.89386 8.10056 4.40787 8.44365 4.03789C8.78674 3.66791 9.257 3.44128 9.76016 3.40344L9.91016 3.39844H15.9102ZM12.9102 10.3984C12.1668 10.3984 11.4498 10.6743 10.8983 11.1728C10.3468 11.6713 9.99999 12.3568 9.92516 13.0964L9.91416 13.2484L9.91016 13.3984L9.91416 13.5484C9.9435 14.1347 10.1442 14.6994 10.4913 15.1727C10.8385 15.646 11.3168 16.0071 11.8672 16.2112C12.4175 16.4153 13.0156 16.4535 13.5875 16.321C14.1593 16.1886 14.6797 15.8913 15.0842 15.466C15.4887 15.0406 15.7596 14.506 15.8632 13.9283C15.9669 13.3505 15.8988 12.7551 15.6674 12.2156C15.436 11.6762 15.0514 11.2165 14.5613 10.8935C14.0712 10.5705 13.4971 10.3984 12.9102 10.3984Z" fill="white"/>
</svg>
