<svg width="50" height="50" viewBox="0 0 50 50" fill="none" xmlns="http://www.w3.org/2000/svg">
<path d="M34.8333 30.6682C35.5625 28.8974 35.9583 27.0016 35.9583 24.9182C35.9583 23.4182 35.7292 21.9807 35.3333 20.6474C33.9792 20.9599 32.5625 21.1266 31.0833 21.1266C28.0541 21.1298 25.0685 20.4047 22.3782 19.0125C19.6879 17.6202 17.3717 15.6015 15.625 13.1266C13.7582 17.649 10.2327 21.2863 5.77083 23.2932C5.6875 23.8141 5.6875 24.3766 5.6875 24.9182C5.6875 26.9072 6.07926 28.8767 6.84041 30.7143C7.60156 32.5519 8.71719 34.2215 10.1236 35.628C12.964 38.4684 16.8164 40.0641 20.8333 40.0641C23.0208 40.0641 25.125 39.5849 27.0208 38.7307C28.2083 41.0016 28.75 42.1266 28.7083 42.1266C25.2917 43.2724 22.6458 43.8349 20.8333 43.8349C15.7917 43.8349 10.9792 41.8557 7.4375 38.2932C5.28135 36.1473 3.67973 33.5089 2.77083 30.6057H0V21.1266H2.27083C2.95884 17.7776 4.54061 14.6774 6.84831 12.1549C9.15601 9.63235 12.1036 7.78159 15.3782 6.79899C18.6528 5.81639 22.1324 5.7386 25.4476 6.57388C28.7629 7.40916 31.7902 9.12635 34.2083 11.5432C36.8329 14.159 38.6235 17.4938 39.3542 21.1266H41.6667V30.6057H41.5417L34.125 37.4182L23.0833 36.1682V32.6891H33.1458L34.8333 30.6682ZM15.1458 24.4391C15.7708 24.4391 16.375 24.6891 16.8125 25.1474C17.2522 25.5907 17.4989 26.1897 17.4989 26.8141C17.4989 27.4384 17.2522 28.0375 16.8125 28.4807C16.375 28.9182 15.7708 29.1682 15.1458 29.1682C13.8333 29.1682 12.7708 28.1266 12.7708 26.8141C12.7708 25.5016 13.8333 24.4391 15.1458 24.4391ZM26.5 24.4391C27.8125 24.4391 28.8542 25.5016 28.8542 26.8141C28.8542 28.1266 27.8125 29.1682 26.5 29.1682C25.1875 29.1682 24.125 28.1266 24.125 26.8141C24.125 26.1842 24.3752 25.5801 24.8206 25.1347C25.266 24.6893 25.8701 24.4391 26.5 24.4391Z" fill="#00796B"/>
</svg>
