<svg width="50" height="50" viewBox="0 0 50 50" fill="none" xmlns="http://www.w3.org/2000/svg">
<path d="M35.416 6.95843C38.5582 8.77272 41.1721 11.3762 42.999 14.5111C44.8258 17.6461 45.8022 21.2038 45.8315 24.8321C45.8608 28.4603 44.942 32.0333 43.1661 35.1974C41.3901 38.3614 38.8186 41.0068 35.7061 42.8716C32.5936 44.7364 29.048 45.756 25.4204 45.8294C21.7927 45.9028 18.2088 45.0275 15.0234 43.2902C11.838 41.5529 9.16158 39.0137 7.25907 35.9241C5.35656 32.8345 4.29395 29.3016 4.17643 25.6751L4.16602 25.0001L4.17643 24.3251C4.29311 20.7272 5.34007 17.2209 7.21526 14.148C9.09046 11.0752 11.7299 8.54063 14.8762 6.79152C18.0225 5.04242 21.5684 4.13843 25.1681 4.16768C28.7678 4.19693 32.2985 5.15843 35.416 6.95843ZM24.9993 12.5001C24.4891 12.5002 23.9966 12.6875 23.6152 13.0266C23.2339 13.3657 22.9903 13.8329 22.9306 14.3397L22.916 14.5834V25.0001L22.9348 25.273C22.9823 25.6345 23.1238 25.9771 23.3452 26.2668L23.5264 26.4751L29.7764 32.7251L29.9723 32.8959C30.3376 33.1794 30.7869 33.3333 31.2493 33.3333C31.7118 33.3333 32.1611 33.1794 32.5264 32.8959L32.7223 32.723L32.8952 32.5272C33.1787 32.1618 33.3325 31.7125 33.3325 31.2501C33.3325 30.7877 33.1787 30.3384 32.8952 29.973L32.7223 29.7772L27.0827 24.1355V14.5834L27.0681 14.3397C27.0084 13.8329 26.7648 13.3657 26.3835 13.0266C26.0021 12.6875 25.5096 12.5002 24.9993 12.5001Z" fill="#00796B"/>
</svg>
