<svg width="172" height="151" viewBox="0 0 172 151" fill="none" xmlns="http://www.w3.org/2000/svg">
<path d="M165.388 2.08997C162.16 0.21696 158.232 -0.432283 154.468 0.285023C150.705 1.00233 147.414 3.02745 145.32 5.915L64.0121 118.031L24.3595 85.2325C22.9605 84.0754 21.3205 83.176 19.5329 82.5858C17.7454 81.9957 15.8454 81.7262 13.9415 81.7929C10.0964 81.9276 6.46852 83.4233 3.85607 85.9508C1.24362 88.4784 -0.139452 91.8308 0.0111242 95.2706C0.161701 98.7104 1.83359 101.956 4.65899 104.293L56.723 147.355C56.723 147.355 58.2176 148.506 58.9092 148.908C60.5079 149.836 62.2954 150.473 64.1694 150.784C66.0434 151.094 67.9674 151.07 69.8314 150.715C71.6954 150.36 73.463 149.68 75.0331 148.713C76.6032 147.747 77.9451 146.513 78.9822 145.083L169.664 20.0425C171.757 17.1545 172.483 13.6408 171.681 10.2742C170.88 6.90756 168.616 3.96368 165.388 2.08997Z" fill="white"/>
</svg>
