<svg width="50" height="56" viewBox="0 0 50 56" fill="none" xmlns="http://www.w3.org/2000/svg">
<path d="M23.3809 29.1761C23.3809 35.0148 28.1118 39.7461 33.9486 39.7461C39.7862 39.7461 44.5157 35.0148 44.5157 29.1761C44.5157 23.3402 39.7862 18.6074 33.9486 18.6074C28.1118 18.6074 23.3809 23.3402 23.3809 29.1761Z" fill="#00796B"/>
<path d="M27.8314 40.7417C22.3436 40.7417 17.8965 45.1902 17.8965 50.6764V55.4978H49.9991V50.6764C49.9991 45.1902 45.5524 40.7417 40.0646 40.7417H27.8314ZM37.8849 53.7912H36.4168H31.4777H30.011L27.7323 41.8248C27.9546 41.8081 28.1789 41.791 28.4084 41.791H39.4889C39.7165 41.791 39.9399 41.808 40.1627 41.8248L37.8849 53.7912Z" fill="#00796B"/>
<path d="M35.1934 45.7464L36.4169 53.7912H37.885L40.1628 41.8248C39.9399 41.8081 39.7166 41.791 39.489 41.791H28.4086C28.1791 41.791 27.9548 41.808 27.7324 41.8248L30.0112 53.7912H31.4779L32.7037 45.7464H32.7457L31.544 43.5375H36.3514H36.3523L35.1501 45.7464H35.1934Z" fill="#00796B"/>
<path d="M31.4785 53.7913H36.4177L35.1942 45.7466H35.1508L36.3529 43.5376H36.3521H31.5446L32.7464 45.7466H32.7043L31.4785 53.7913Z" fill="#00796B"/>
<path d="M22.4874 16.0265C22.4874 11.5567 18.9204 7.91943 14.5333 7.91943C10.147 7.91943 6.58008 11.5567 6.58008 16.0265C6.58008 19.1921 8.37014 21.9389 10.9733 23.2726L10.9583 23.4254L10.9554 23.4574V27.5348C10.9554 28.2787 11.5475 28.8853 12.2808 28.8853H12.7106V28.9174H16.3573V28.8853H16.7875C17.5184 28.8853 18.1144 28.2787 18.1144 27.5348V23.4574L18.1106 23.4254L18.0955 23.2726C20.6973 21.9389 22.4874 19.1921 22.4874 16.0265ZM9.81651 14.7299C9.78491 14.8579 9.67201 14.9481 9.54172 14.9481H9.46526C9.376 14.9481 9.29337 14.9069 9.2386 14.8352C9.1843 14.7634 9.16635 14.6732 9.18906 14.5863C9.73771 12.3878 11.5065 10.6859 13.6909 10.2521C13.8713 10.2157 14.0309 10.359 14.0309 10.5393V10.6142C14.0309 10.7516 13.9326 10.8705 13.8 10.8984C11.8767 11.2834 10.3118 12.788 9.81651 14.7299ZM17.5959 27.6893C17.5959 27.7856 17.5071 27.8605 17.3985 27.8605H11.6684C11.5603 27.8605 11.4729 27.7856 11.4729 27.6893V27.3869C11.4729 27.2919 11.5603 27.2157 11.6684 27.2157H17.3985C17.5071 27.2157 17.5959 27.2919 17.5959 27.3869V27.6893ZM17.5959 26.1601C17.5959 26.2545 17.5071 26.331 17.3985 26.331H11.6684C11.5603 26.331 11.4729 26.2545 11.4729 26.1601V25.8573C11.4729 25.7627 11.5603 25.6864 11.6684 25.6864H17.3985C17.5071 25.6864 17.5959 25.7626 17.5959 25.8573V26.1601ZM17.5959 24.6294C17.5959 24.7253 17.5071 24.8018 17.3985 24.8018H11.6684C11.5603 24.8018 11.4729 24.7253 11.4729 24.6294V24.3268C11.4729 24.2338 11.5603 24.1572 11.6684 24.1572H17.3985C17.5071 24.1572 17.5959 24.2337 17.5959 24.3268V24.6294Z" fill="#00796B"/>
<path d="M12.7109 29.3576C12.7109 30.0862 13.3295 30.1258 14.0855 30.1258H14.9827C15.742 30.1258 16.3578 30.0862 16.3578 29.3576V28.9175H12.711L12.7109 29.3576Z" fill="#00796B"/>
<path d="M13.9414 0.591407V5.18207C13.9414 5.50719 14.2054 5.77301 14.5345 5.77301C14.8612 5.77301 15.127 5.50719 15.127 5.18207V0.591407C15.127 0.265821 14.8612 0 14.5345 0C14.2054 0 13.9414 0.265821 13.9414 0.591407Z" fill="#00796B"/>
<path d="M0.832288 9.05481C0.533853 8.92163 0.184003 9.05621 0.0512874 9.35559C-0.0818963 9.65355 0.0531598 10.0034 0.353935 10.1361L4.54653 11.9985C4.84543 12.1312 5.19676 11.9971 5.328 11.6991C5.46118 11.3998 5.32566 11.0498 5.02675 10.9167L0.832288 9.05481Z" fill="#00796B"/>
<path d="M28.1254 9.05481L23.9318 10.9167C23.6339 11.0498 23.4983 11.3997 23.6311 11.6991C23.7638 11.9971 24.1141 12.1311 24.413 11.9985L28.6066 10.1361C28.906 10.0034 29.0401 9.65355 28.9074 9.35559C28.7747 9.05621 28.4243 8.92163 28.1254 9.05481Z" fill="#00796B"/>
</svg>
