<svg width="127" height="112" viewBox="0 0 127 112" fill="none" xmlns="http://www.w3.org/2000/svg">
<path d="M63.5 64.6225C59.2897 64.6225 55.2518 66.1156 52.2747 68.7733C49.2975 71.4309 47.625 75.0355 47.625 78.794V111.984H79.375V78.794C79.375 75.0355 77.7025 71.4309 74.7253 68.7733C71.7482 66.1156 67.7103 64.6225 63.5 64.6225Z" fill="white"/>
<path d="M70.5803 2.42558C68.6368 0.864046 66.1147 0 63.5 0C60.8853 0 58.3632 0.864046 56.4198 2.42558L5.25506 43.5335C1.91006 46.221 0 50.0496 0 54.067V96.8837C0 100.893 1.78404 104.738 4.95966 107.573C8.13527 110.407 12.4423 112 16.9333 112H37.0417V78.7961C37.0417 72.5318 39.8292 66.5242 44.7911 62.0947C49.753 57.6653 56.4828 55.1768 63.5 55.1768C70.5172 55.1768 77.247 57.6653 82.2089 62.0947C87.1708 66.5242 89.9583 72.5318 89.9583 78.7961V111.986H110.067C114.558 111.986 118.865 110.393 122.04 107.558C125.216 104.724 127 100.879 127 96.8695V54.0542C127 50.036 125.089 46.2067 121.743 43.5192L70.5803 2.42558Z" fill="white"/>
</svg>
