<svg width="68" height="50" viewBox="0 0 68 50" fill="none" xmlns="http://www.w3.org/2000/svg">
<path d="M59.7331 15.855C63.8664 15.796 66.6891 14.0755 65.2232 12.4747C64.4127 11.5893 63.3145 10.7634 61.9289 9.9971C58.9547 8.3525 55.0393 7.07361 50.1841 6.15982C46.4053 5.44909 42.2803 5.01589 37.8121 4.85811V1.73109C37.8121 0.77501 35.9398 0 33.63 0C31.3202 0 29.4479 0.77501 29.4479 1.73109V4.87201C24.9828 5.04108 20.882 5.47024 17.1456 6.15982C12.1969 7.07361 8.29352 8.35749 5.43581 10.0115C2.5781 11.6659 1.14925 13.6179 1.14925 15.8683V15.8972C1.14925 18.7441 3.42543 21.0138 7.98008 22.7062C12.5336 24.399 19.1552 25.6779 27.8451 26.5435L29.4482 26.7038V40.6154C26.3813 40.4817 23.7555 40.2057 21.572 39.7863C18.3658 39.171 15.9143 38.3487 14.2185 37.3195C13.2942 36.7592 12.5462 36.1689 11.9742 35.5485C11.0737 34.5722 8.77489 33.9396 6.25071 33.9516L6.1224 33.9521C1.8786 33.9722 -1.02847 35.7456 0.533282 37.3792C1.43945 38.3268 2.66708 39.2014 4.21649 40.0029C7.46858 41.6862 11.6854 42.9746 16.8672 43.869C20.7761 44.5439 24.9702 44.9638 29.4485 45.1294V48.2689C29.4485 49.225 31.3208 50 33.6306 50C35.9403 50 37.8127 49.225 37.8127 48.2689V45.1471C42.3794 44.9991 46.6791 44.5883 50.7074 43.9123C55.8654 43.0468 60.0233 41.7679 63.1839 40.075C66.3435 38.3828 67.9237 36.2955 67.9237 33.8142V33.7853C67.9237 30.7465 65.5068 28.3856 60.6746 26.7022C55.8412 25.0194 48.9407 23.7355 39.9732 22.8506L37.8127 22.6344V9.39092C40.084 9.51211 42.1876 9.74261 44.1205 10.0836C47.1177 10.6128 49.5452 11.3725 51.4043 12.3629C52.4235 12.9065 53.2192 13.5091 53.7912 14.1711C54.6868 15.2076 57.0752 15.8929 59.7331 15.855ZM16.9014 19.3161C14.4845 18.268 13.277 17.0418 13.277 15.6376V15.6087C13.277 14.5512 14.0546 13.5414 15.612 12.5792C17.1683 11.6177 19.4807 10.8293 22.5473 10.2135C24.5419 9.81318 26.8434 9.54395 29.4476 9.40399V21.7974C23.4813 21.1834 19.2984 20.3566 16.9014 19.3161ZM55.795 34.1314C55.795 35.3432 55.074 36.4496 53.6342 37.4494C52.1933 38.4497 49.8813 39.2431 46.6989 39.8297C44.316 40.269 41.3532 40.5436 37.8121 40.654V27.5403L38.2303 27.5821C45.1068 28.2746 49.7541 29.1401 52.1707 30.1788C54.5863 31.2174 55.7953 32.5257 55.7953 34.1027L55.795 34.1314Z" fill="#00796B"/>
</svg>
